<svg xmlns="http://www.w3.org/2000/svg" version="1.1" xmlns:xlink="http://www.w3.org/1999/xlink" xmlns:svgjs="http://svgjs.dev/svgjs" width="1000" height="1000" viewBox="0 0 1000 1000"><rect width="1000" height="1000" fill="#ffffff"></rect><g transform="matrix(0.7,0,0,0.7,150,106.25)"><svg viewBox="0 0 320 360" data-background-color="#ffffff" preserveAspectRatio="xMidYMid meet" height="1125" width="1000" xmlns="http://www.w3.org/2000/svg" xmlns:xlink="http://www.w3.org/1999/xlink"><g id="tight-bounds" transform="matrix(1,0,0,1,0,0)"><svg viewBox="0 0 320 360" height="360" width="320"><g><svg></svg></g><g><svg viewBox="0 0 320 360" height="360" width="320"><g><path xmlns="http://www.w3.org/2000/svg" d="M219.58 41.008c0.707 0 6.365 2.829 9.547 3.89-1.061 0.354-3.536-0.707-6.365-1.768 0.707 0 2.122 0.354 3.536 1.06-0.707-0.707-6.011-2.475-6.718-3.182M166.895 30.047c1.061-0.354 13.436 1.414 19.094 1.768 0.354-0.354-0.707-0.354-2.122-0.707 1.768-0.354 5.304 0.707 7.779 1.06-7.425 0.354-15.558-1.768-22.629-1.06-2.475 0-0.707-0.707-2.122-1.061M156.641 30.047c6.365 0 11.315 0 2.121 0.707-1.061-0.354-2.475-0.354-2.121-0.707M256.707 59.395c0.707 0 3.536 3.182 4.95 4.243-0.354 0.354-3.182-2.475-4.596-3.536 0.354 0.354 0 0-0.354-0.707M249.635 54.798c-2.829-2.475-3.889-2.475-4.243-3.889 2.475 1.414 4.243 2.829 4.243 3.889M204.022 32.522c0.354-0.354 1.061 0.354 2.829 0.707-2.122-0.354-1.768 0-1.061 0.707-2.475-0.354-3.182-0.707-2.475-1.414 1.414 0.707 1.768 0.354 0.707 0M103.602 36.765c0-0.354 1.414-1.061 2.475-1.414-1.061 0.707-0.707 1.061 1.061 0.353 0 0.354-2.122 1.061-3.536 1.768 0.707-0.354 1.414-1.414 0-0.707M211.094 28.986c-1.061 0.354-4.95-1.768-8.84-2.475-2.122-0.707 8.486 1.768 8.84 2.475M2.475 203.66c2.122 8.84 0.707 8.486 0 0M2.829 150.621c0.354-1.414 0.707-5.304 1.06-4.95-1.061 8.486-2.829 12.376-3.182 18.74 1.061-5.657-0.354 3.182-0.707 5.304 0.354 2.829 0.354-1.768 1.061-1.06 0.707 1.061-1.414 15.912-0.707 7.779-0.707 7.425 0 15.558 1.414 17.679-1.768 11.315 7.072 36.773 8.84 42.077 0.354 0.354 0-1.768 0.707-0.353 0.707 4.597 3.889 7.779 4.95 12.729 1.061 1.414 5.304 9.193 6.011 10.962 1.414 2.829 2.122 2.475 3.536 5.303 4.243 8.133 10.961 15.912 17.326 23.337 20.508 24.044 51.978 43.845 86.984 50.918 35.006 7.425 71.779 2.122 100.419-11.669 1.768-1.061 1.414-1.414 3.536-2.122 9.901-3.182 21.923-13.436 28.641-17.326 3.182-3.536 11.669-9.547 12.73-13.082 6.011-4.95 12.022-13.083 15.204-18.387 1.768-2.829 3.182-2.829 3.889-4.597-0.354 0 5.657-7.425 7.426-11.668-0.707 0-1.768 2.122-1.768 0 12.729-24.398 19.801-57.282 15.911-79.912 0.707 27.934-6.365 59.05-19.801 78.851-6.011 12.729-18.387 26.519-29.701 36.42-1.768 1.768-3.536 3.889-5.658 5.304-6.718 5.657-14.144 10.254-21.922 14.497-18.387 10.254-38.895 19.094-62.94 19.447 41.37-3.536 78.497-24.398 99.006-49.856-15.558 15.204-22.276 21.215-39.602 30.055-1.414 2.475-13.083 7.425-20.862 9.547 4.597-2.122 14.144-5.657 17.326-8.486-25.812 12.376-54.453 19.448-81.326 15.558 10.254 0 24.751 0.354 38.541-2.121 2.122-0.707 3.182-1.414 5.658-1.768 26.873-6.011 52.685-19.094 71.072-37.481-10.608 9.547-26.519 20.862-36.774 24.398 9.547-5.304 26.873-15.558 32.53-23.337-11.315 11.315-32.53 22.63-45.966 27.58-2.122 0.354 1.414-1.414-2.122 0-4.243 1.061-2.475 1.061-3.536 1.768-16.265 4.597-35.006 8.486-50.563 7.072-2.829-0.354-3.889-1.061-6.365-1.061-2.829-0.354-5.304-0.354-8.486-0.354-12.376-1.414-25.812-6.365-35.713-10.607-5.304-2.475-10.608-4.243-15.912-7.426-4.243-2.475-7.779-5.304-11.314-8.132-13.436-9.901-24.751-19.801-35.36-33.945-19.094-26.519-28.994-59.757-27.58-92.641 1.414-32.884 14.497-65.061 35.359-88.752-1.061 1.061 1.414-2.475 3.536-4.596 0 0.707-0.354 1.768 2.122-0.707 2.122-2.475-0.707-0.707 0.353-2.122 21.923-24.044 60.111-43.492 99.36-44.199 1.414-1.061 3.889-2.475 6.718-1.768 0 0.354-1.768 0.354-1.768 0.354 3.889-0.354 7.425-0.354 9.193 0.353 0.354-0.354-1.414-0.707 0-0.707 2.475 0.707 3.182 0 4.597 0.707-1.061 0-2.122 0-2.829 0.354 8.84 0 14.497 2.122 23.337 2.829-4.597-1.061-5.657-1.061-9.193-2.122 3.889 0.707 5.657 1.414 7.425 1.061-0.707 0-0.354-1.061 0.354-0.707 7.072 1.768 7.779 2.475 15.204 4.95 0.707-0.707-3.182-1.061-4.243-2.122 7.072 2.475 13.436 4.243 17.68 7.072-1.414-1.061-5.657-2.475-8.84-3.889-0.354 0.354 1.061 0.707 1.414 1.414-3.536-1.768-8.486-3.536-13.436-4.243 4.243 1.061 7.072 2.475 8.84 3.182-3.889-0.707-8.84-3.182-14.498-4.243 9.193 2.829 26.519 9.193 37.127 14.851-3.889-2.475-8.486-4.243-10.961-5.657 2.122 0.354 4.597 1.768 4.597 1.06 2.475 1.061 5.657 3.536 7.425 3.89-3.182-2.122-9.547-5.304-11.668-6.365 26.519 12.022 50.21 32.177 65.414 57.989 1.414 2.475 3.536 8.133 5.304 8.84-0.354-1.768-1.768-2.829-3.182-5.657 0.707 0 0.707-1.061 0-2.122-1.414-1.768 0 1.414-1.415-0.354-6.365-11.669-14.144-21.923-26.165-33.237 6.718 6.365 1.768 1.768 0.353-0.354 9.193 8.133 19.801 21.923 24.398 28.995-0.707-1.061-1.061-1.768-0.707-1.768 8.486 14.497 13.79 27.58 19.094 46.32 0.354 0.354 0-1.414 0.707-0.353 3.536 14.851 4.597 27.227 4.243 38.541 2.829-19.094-3.536-48.796-14.851-72.133-1.414-2.829-1.414-0.707-2.829-3.889 0-1.061-1.061-3.182-1.768-4.597-14.144-23.337-31.47-39.956-51.978-53.038 1.414 0.707 4.243 2.829 4.244 2.475-38.188-25.105-82.387-28.641-118.807-20.862-2.475 1.061-3.536 2.122-6.365 3.536 5.304-1.768 8.486-2.122 13.437-3.183 1.061-1.061-4.597 0.354-2.122-0.707 0.354 0.354 4.95-0.707 6.011-0.353 0 0.354-1.414 0.707-1.768 1.06 11.669-2.475 23.691-2.829 33.945-2.121-6.011 0.354-16.972-0.707-20.508 1.061 3.536-0.354 8.486-0.707 11.668-0.354-4.243 0-12.022 0.354-15.558 0.707-0.354-0.354 5.657-1.061 1.768-1.06-1.768 0.354-4.597 0.354-5.657 1.414-30.409 2.829-60.111 18.74-80.973 37.481-4.243 3.536-9.193 7.425-12.375 11.314-7.779 8.84-12.729 17.68-18.387 25.459 3.536-7.425 11.315-18.74 20.508-28.287 9.193-9.547 19.094-17.68 24.398-21.923 0 1.414 8.486-5.304 11.669-7.425-2.122 1.768 1.414-0.707 2.121-0.354 11.315-6.718 20.508-9.193 30.763-13.083-2.475 0.707-4.597 1.414-4.951 1.061 2.475-0.707 3.889-1.414 3.536-1.768-9.901 2.829-25.459 9.547-37.834 16.972 22.276-15.204 50.564-24.398 78.497-24.751 27.934-0.707 55.16 6.365 76.729 17.68 14.497 6.365 28.287 18.033 39.249 29.348 3.182 2.829 0.707-0.707 5.304 4.243-1.414-0.707-2.475-1.414-0.707 0.707 2.829 3.182-0.707-2.475 3.889 3.182-0.354 0-1.768-1.768-1.768-1.061 12.376 10.961 21.923 30.762 27.58 43.846-1.414-5.304-4.95-12.729-7.779-18.033 8.486 15.558 11.315 24.751 14.851 38.541 1.414 1.061-0.707-4.95 0.707-2.121 0.354 2.122 0.707 8.84 2.122 9.9-1.061-6.718-2.829-14.851-4.243-16.265 1.061 0.707-1.768-8.133-3.536-10.254-0.707-5.657-5.657-15.558-9.901-22.984-15.204-29.702-42.431-54.099-72.839-67.536 0-0.707-1.768-1.414-2.476-2.121-30.055-12.729-66.122-16.265-100.773-8.133-35.006 8.486-67.889 28.641-91.227 57.636 1.061-3.536 9.901-10.254 10.255-13.083-10.254 10.961-21.215 25.459-28.641 41.016-7.779 15.558-12.022 31.47-13.79 43.138" fill="#000000" fill-rule="nonzero" stroke="none" stroke-width="1" stroke-linecap="butt" stroke-linejoin="miter" stroke-miterlimit="10" stroke-dasharray="" stroke-dashoffset="0" font-family="none" font-weight="none" font-size="none" text-anchor="none" style="mix-blend-mode: normal" data-fill-palette-color="tertiary"></path></g><g transform="matrix(1,0,0,1,48.000000000000014,167.50269773849158)"><svg viewBox="0 0 223.99999999999997 24.994604523016875" height="24.994604523016875" width="223.99999999999997"><g><svg viewBox="0 0 223.99999999999997 24.994604523016875" height="24.994604523016875" width="223.99999999999997"><g><svg viewBox="0 0 223.99999999999997 24.994604523016875" height="24.994604523016875" width="223.99999999999997"><g id="textblocktransform"><svg viewBox="0 0 223.99999999999997 24.994604523016875" height="24.994604523016875" width="223.99999999999997" id="textblock"><g><svg viewBox="0 0 223.99999999999997 24.994604523016875" height="24.994604523016875" width="223.99999999999997"><g transform="matrix(1,0,0,1,0,0)"><svg width="223.99999999999997" viewBox="3.450000047683716 -37.70000076293945 430.80999755859375 48.599998474121094" height="24.994604523016875" data-palette-color="#31c48d"><g class="wordmark-text-0" data-fill-palette-color="primary" id="text-0"><path d="M12.4-34.55Q18.85-34.55 22.28-31.78 25.7-29 25.7-23.55L25.7-23.55Q25.7-17.85 22.28-14.98 18.85-12.1 12.85-12.1L12.85-12.1 9.95-12.1 9.95 0 3.45 0 3.45-34.55 12.4-34.55ZM12.45-16.95Q15.8-16.95 17.4-18.43 19-19.9 19-23.55L19-23.55Q19-26.8 17.4-28.3 15.8-29.8 12.45-29.8L12.45-29.8 9.95-29.8 9.95-16.95 12.45-16.95ZM49.45-26.45L49.45 0 44.05 0 43.7-3.5Q42.35-1.35 40.62-0.3 38.9 0.75 36.55 0.75L36.55 0.75Q33.35 0.75 31.57-1.35 29.8-3.45 29.8-7L29.8-7 29.8-26.45 36.05-26.45 36.05-7.55Q36.05-5.7 36.67-4.85 37.3-4 38.65-4L38.65-4Q41.25-4 43.2-7.6L43.2-7.6 43.2-26.45 49.45-26.45ZM68.3-27.15Q69.34-27.15 70.65-26.8L70.65-26.8 69.59-20.75Q68.55-21.05 67.5-21.05L67.5-21.05Q65.4-21.05 64.17-19.4 62.95-17.75 62.3-14.4L62.3-14.4 62.3 0 56.05 0 56.05-26.45 61.5-26.45 62-21.55Q62.95-24.3 64.55-25.73 66.15-27.15 68.3-27.15L68.3-27.15ZM94.09-13.85Q94.09-13.4 93.94-11.3L93.94-11.3 78.99-11.3Q79.29-7.3 80.69-5.65 82.09-4 84.59-4L84.59-4Q86.19-4 87.59-4.55 88.99-5.1 90.59-6.25L90.59-6.25 93.19-2.7Q89.24 0.75 84.14 0.75L84.14 0.75Q78.59 0.75 75.59-2.9 72.59-6.55 72.59-13.05L72.59-13.05Q72.59-19.45 75.47-23.33 78.34-27.2 83.49-27.2L83.49-27.2Q88.49-27.2 91.29-23.75 94.09-20.3 94.09-13.85L94.09-13.85ZM87.94-15.35L87.94-15.65Q87.94-19.25 86.89-21.03 85.84-22.8 83.54-22.8L83.54-22.8Q81.44-22.8 80.32-21.08 79.19-19.35 78.99-15.35L78.99-15.35 87.94-15.35Z" fill="#000000" data-fill-palette-color="primary"></path><path d="M121.59-35.3Q124.69-35.3 127.11-34.27 129.54-33.25 131.69-31.25L131.69-31.25 128.34-27.8Q126.64-29.2 125.16-29.8 123.69-30.4 121.79-30.4L121.79-30.4Q118.19-30.4 116.01-27.33 113.84-24.25 113.84-17.3L113.84-17.3Q113.84-12.4 114.61-9.53 115.39-6.65 116.94-5.43 118.49-4.2 120.89-4.2L120.89-4.2Q123.49-4.2 125.64-5.5L125.64-5.5 125.64-14.7 121.14-14.7 120.49-19.5 131.89-19.5 131.89-2.65Q129.49-1.05 126.69-0.15 123.89 0.75 120.99 0.75L120.99 0.75Q107.09 0.75 107.09-17.3L107.09-17.3Q107.09-23.15 109.01-27.2 110.94-31.25 114.21-33.27 117.49-35.3 121.59-35.3L121.59-35.3ZM149.79-27.15Q150.84-27.15 152.14-26.8L152.14-26.8 151.09-20.75Q150.04-21.05 148.99-21.05L148.99-21.05Q146.89-21.05 145.66-19.4 144.44-17.75 143.79-14.4L143.79-14.4 143.79 0 137.54 0 137.54-26.45 142.99-26.45 143.49-21.55Q144.44-24.3 146.04-25.73 147.64-27.15 149.79-27.15L149.79-27.15ZM175.58-13.85Q175.58-13.4 175.43-11.3L175.43-11.3 160.48-11.3Q160.78-7.3 162.18-5.65 163.58-4 166.08-4L166.08-4Q167.68-4 169.08-4.55 170.48-5.1 172.08-6.25L172.08-6.25 174.68-2.7Q170.73 0.75 165.63 0.75L165.63 0.75Q160.08 0.75 157.08-2.9 154.08-6.55 154.08-13.05L154.08-13.05Q154.08-19.45 156.96-23.33 159.83-27.2 164.98-27.2L164.98-27.2Q169.98-27.2 172.78-23.75 175.58-20.3 175.58-13.85L175.58-13.85ZM169.43-15.35L169.43-15.65Q169.43-19.25 168.38-21.03 167.33-22.8 165.03-22.8L165.03-22.8Q162.93-22.8 161.81-21.08 160.68-19.35 160.48-15.35L160.48-15.35 169.43-15.35ZM200.63-13.85Q200.63-13.4 200.48-11.3L200.48-11.3 185.53-11.3Q185.83-7.3 187.23-5.65 188.63-4 191.13-4L191.13-4Q192.73-4 194.13-4.55 195.53-5.1 197.13-6.25L197.13-6.25 199.73-2.7Q195.78 0.75 190.68 0.75L190.68 0.75Q185.13 0.75 182.13-2.9 179.13-6.55 179.13-13.05L179.13-13.05Q179.13-19.45 182.01-23.33 184.88-27.2 190.03-27.2L190.03-27.2Q195.03-27.2 197.83-23.75 200.63-20.3 200.63-13.85L200.63-13.85ZM194.48-15.35L194.48-15.65Q194.48-19.25 193.43-21.03 192.38-22.8 190.08-22.8L190.08-22.8Q187.98-22.8 186.86-21.08 185.73-19.35 185.53-15.35L185.53-15.35 194.48-15.35ZM218.73-27.2Q221.88-27.2 223.68-25.1 225.48-23 225.48-19.4L225.48-19.4 225.48 0 219.23 0 219.23-18.55Q219.23-20.65 218.55-21.53 217.88-22.4 216.58-22.4L216.58-22.4Q215.23-22.4 214.08-21.4 212.93-20.4 211.83-18.45L211.83-18.45 211.83 0 205.58 0 205.58-26.45 211.03-26.45 211.48-23Q212.93-25.05 214.7-26.13 216.48-27.2 218.73-27.2L218.73-27.2Z" fill="#000000" data-fill-palette-color="secondary"></path><path d="M263.38 0L256.88 0 256.88-15.5 246.48-15.5 246.48 0 239.98 0 239.98-34.55 246.48-34.55 246.48-20.65 256.88-20.65 256.88-34.55 263.38-34.55 263.38 0ZM289.98-26.45L282.28 0.1Q280.88 4.95 277.8 7.7 274.73 10.45 269.53 10.9L269.53 10.9 268.88 6.35Q272.28 5.8 273.93 4.4 275.58 3 276.63 0L276.63 0 274.38 0 266.93-26.45 273.38-26.45 278.43-4.15 283.68-26.45 289.98-26.45ZM307.62-37.7L313.87-37.05 313.87 0 308.32 0 307.97-3.2Q305.37 0.75 301.22 0.75L301.22 0.75Q296.82 0.75 294.47-2.95 292.12-6.65 292.12-13.2L292.12-13.2Q292.12-17.35 293.32-20.53 294.52-23.7 296.7-25.45 298.87-27.2 301.72-27.2L301.72-27.2Q305.22-27.2 307.62-24.4L307.62-24.4 307.62-37.7ZM302.97-3.95Q304.42-3.95 305.52-4.78 306.62-5.6 307.62-7.25L307.62-7.25 307.62-19.7Q306.67-21.1 305.65-21.8 304.62-22.5 303.32-22.5L303.32-22.5Q301.12-22.5 299.87-20.28 298.62-18.05 298.62-13.25L298.62-13.25Q298.62-8.3 299.75-6.13 300.87-3.95 302.97-3.95L302.97-3.95ZM332.72-27.15Q333.77-27.15 335.07-26.8L335.07-26.8 334.02-20.75Q332.97-21.05 331.92-21.05L331.92-21.05Q329.82-21.05 328.59-19.4 327.37-17.75 326.72-14.4L326.72-14.4 326.72 0 320.47 0 320.47-26.45 325.92-26.45 326.42-21.55Q327.37-24.3 328.97-25.73 330.57-27.15 332.72-27.15L332.72-27.15ZM348.42-27.2Q353.77-27.2 356.77-23.6 359.77-20 359.77-13.25L359.77-13.25Q359.77-6.75 356.74-3 353.72 0.75 348.42 0.75L348.42 0.75Q343.07 0.75 340.04-2.93 337.02-6.6 337.02-13.25L337.02-13.25Q337.02-19.8 340.04-23.5 343.07-27.2 348.42-27.2L348.42-27.2ZM348.42-22.45Q345.97-22.45 344.77-20.28 343.57-18.1 343.57-13.25L343.57-13.25Q343.57-8.35 344.77-6.18 345.97-4 348.42-4L348.42-4Q350.87-4 352.07-6.2 353.27-8.4 353.27-13.25L353.27-13.25Q353.27-18.15 352.07-20.3 350.87-22.45 348.42-22.45L348.42-22.45ZM384.47-30L386.07-25.1Q383.77-24.15 379.22-24.15L379.22-24.15Q381.47-23.15 382.57-21.48 383.67-19.8 383.67-17.4L383.67-17.4Q383.67-13.4 381.02-10.95 378.37-8.5 373.87-8.5L373.87-8.5Q372.22-8.5 371.07-8.9L371.07-8.9Q370.62-8.55 370.34-8.03 370.07-7.5 370.07-6.9L370.07-6.9Q370.07-6 370.69-5.48 371.32-4.95 372.92-4.95L372.92-4.95 376.27-4.95Q380.47-4.95 382.92-2.85 385.37-0.75 385.37 2.5L385.37 2.5Q385.37 6.35 382.27 8.6 379.17 10.85 373.32 10.85L373.32 10.85Q367.17 10.85 364.69 8.78 362.22 6.7 362.22 2.6L362.22 2.6 367.82 2.6Q367.82 4.7 368.97 5.6 370.12 6.5 373.37 6.5L373.37 6.5Q376.52 6.5 377.82 5.58 379.12 4.65 379.12 2.9L379.12 2.9Q379.12-0.35 374.97-0.35L374.97-0.35 372.17-0.35Q368.37-0.35 366.57-1.75 364.77-3.15 364.77-5.4L364.77-5.4Q364.77-6.8 365.52-8.05 366.27-9.3 367.62-10.2L367.62-10.2Q365.42-11.5 364.39-13.3 363.37-15.1 363.37-17.7L363.37-17.7Q363.37-22 366.14-24.58 368.92-27.15 373.47-27.15L373.47-27.15Q377.22-27.15 379.54-27.85 381.87-28.55 384.47-30L384.47-30ZM373.57-22.95Q371.62-22.95 370.59-21.65 369.57-20.35 369.57-17.8L369.57-17.8Q369.57-15.3 370.62-13.93 371.67-12.55 373.57-12.55L373.57-12.55Q375.62-12.55 376.62-13.83 377.62-15.1 377.62-17.85L377.62-17.85Q377.62-22.95 373.57-22.95L373.57-22.95ZM409.41-13.85Q409.41-13.4 409.26-11.3L409.26-11.3 394.31-11.3Q394.61-7.3 396.01-5.65 397.41-4 399.91-4L399.91-4Q401.51-4 402.91-4.55 404.31-5.1 405.91-6.25L405.91-6.25 408.51-2.7Q404.56 0.75 399.46 0.75L399.46 0.75Q393.91 0.75 390.91-2.9 387.91-6.55 387.91-13.05L387.91-13.05Q387.91-19.45 390.79-23.33 393.66-27.2 398.81-27.2L398.81-27.2Q403.81-27.2 406.61-23.75 409.41-20.3 409.41-13.85L409.41-13.85ZM403.26-15.35L403.26-15.65Q403.26-19.25 402.21-21.03 401.16-22.8 398.86-22.8L398.86-22.8Q396.76-22.8 395.64-21.08 394.51-19.35 394.31-15.35L394.31-15.35 403.26-15.35ZM427.51-27.2Q430.66-27.2 432.46-25.1 434.26-23 434.26-19.4L434.26-19.4 434.26 0 428.01 0 428.01-18.55Q428.01-20.65 427.34-21.53 426.66-22.4 425.36-22.4L425.36-22.4Q424.01-22.4 422.86-21.4 421.71-20.4 420.61-18.45L420.61-18.45 420.61 0 414.36 0 414.36-26.45 419.81-26.45 420.26-23Q421.71-25.05 423.49-26.13 425.26-27.2 427.51-27.2L427.51-27.2Z" fill="#000000" data-fill-palette-color="accent"></path></g></svg></g></svg></g></svg></g></svg></g><g></g></svg></g></svg></g></svg></g><defs></defs></svg><rect width="320" height="360" fill="none" stroke="none" visibility="hidden"></rect></g></svg></g></svg>